<svg width="1920" height="926" viewBox="0 0 1920 926" fill="none" xmlns="http://www.w3.org/2000/svg">
<g style="mix-blend-mode:color-burn" opacity="0.1">
<path fill-rule="evenodd" clip-rule="evenodd" d="M2443.79 1272.86L2536 1008.51H2074.94C1949.44 288.249 1425.41 -149 635.539 -149C-253.74 -149 -834 450.681 -834 1381.6C-834 2312.52 -274.432 2894 635.539 2894C1375.93 2894 1901.76 2481.32 2056.95 1802.01H2367.32L2457.28 1538.12H2097.43C2102.38 1482.61 2104.63 1423.91 2104.63 1363.85C2104.63 1333.83 2104.63 1304.25 2104.63 1272.86H2443.79ZM676.026 1803.38H1229.3C1167.22 2199.22 999.891 2473.13 653.085 2473.13C190.678 2473.13 12.1016 1983.1 12.1016 1372.5C12.1016 761.899 156.042 271.869 617.999 271.869C984.147 271.869 1172.62 578.536 1235.14 1010.78H843.355L750.694 1275.13H1257.18C1257.18 1306.98 1257.18 1339.74 1257.18 1372.5C1258.98 1429.37 1257.63 1484.88 1254.93 1539.48H768.687L676.026 1803.38Z" fill="#12225C"/>
</g>
</svg>
