<svg xmlns="http://www.w3.org/2000/svg" viewBox="0 0 50 50"><defs><style>.cls-1{fill:#14964f;}.cls-2{fill:#fff;}</style></defs><g id="Layer_2" data-name="Layer 2"><g id="Green"><rect id="Green-2" data-name="Green" class="cls-1" width="50" height="50" rx="12"/><path id="Icon" class="cls-2" d="M24.941,36.324C20.168,36.324,18.3,31.27,18.3,25s1.5-11.277,6.317-11.324c3.79,0,5.746,3.163,6.392,7.627h-4.1l-.936,2.714h5.269c.011.325.019.651.019.983,0,.591-.018,1.166-.045,1.731H26.157l-.981,2.714h5.771c-.649,4.068-2.395,6.879-6.006,6.879M40.055,24.906c0-.3-.023-.592-.034-.889h3.543L44.5,21.3H39.746c-1.3-7.422-6.755-11.931-14.992-11.931C15.489,9.372,9.5,15.548,9.5,25.094c0,9.639,5.8,15.581,15.254,15.534,7.7,0,13.157-4.244,14.785-11.183h3.23l.982-2.714H39.976c.051-.593.079-1.2.079-1.825"/></g></g></svg>